<svg xmlns="http://www.w3.org/2000/svg"  viewBox="0 0 64 64" width="64px" height="64px" fill-rule="evenodd" clip-rule="evenodd"><linearGradient id="zgBj3QDTZqPWGYIabaDBYa" x1="19.12" x2="19.12" y1="21.064" y2="54.306" gradientUnits="userSpaceOnUse"><stop offset="0" stop-color="#6dc7ff"/><stop offset="1" stop-color="#e6abff"/></linearGradient><path fill="url(#zgBj3QDTZqPWGYIabaDBYa)" fill-rule="evenodd" d="M19.12,44.957c1.055,0,1.911,1.427,1.911,3.185	c0,1.758-0.856,3.186-1.911,3.186c-1.055,0-1.911-1.427-1.911-3.186C17.208,46.385,18.065,44.957,19.12,44.957z" clip-rule="evenodd"/><linearGradient id="zgBj3QDTZqPWGYIabaDBYb" x1="39.507" x2="39.507" y1="21.064" y2="54.306" gradientUnits="userSpaceOnUse"><stop offset="0" stop-color="#6dc7ff"/><stop offset="1" stop-color="#e6abff"/></linearGradient><path fill="url(#zgBj3QDTZqPWGYIabaDBYb)" fill-rule="evenodd" d="M39.507,41.135c1.055,0,1.911,1.427,1.911,3.186	c0,1.758-0.856,3.185-1.911,3.185c-1.055,0-1.911-1.427-1.911-3.185C37.596,42.562,38.452,41.135,39.507,41.135z" clip-rule="evenodd"/><linearGradient id="zgBj3QDTZqPWGYIabaDBYc" x1="30.588" x2="30.588" y1="21.064" y2="54.306" gradientUnits="userSpaceOnUse"><stop offset="0" stop-color="#6dc7ff"/><stop offset="1" stop-color="#e6abff"/></linearGradient><path fill="url(#zgBj3QDTZqPWGYIabaDBYc)" fill-rule="evenodd" d="M30.368,47.525c1.039-0.182,1.981,0.233,2.103,0.925	c0.121,0.693-0.624,1.403-1.663,1.585c-1.039,0.182-1.981-0.233-2.103-0.925C28.584,48.417,29.329,47.707,30.368,47.525z" clip-rule="evenodd"/><linearGradient id="zgBj3QDTZqPWGYIabaDBYd" x1="31.241" x2="31.241" y1="21.064" y2="54.306" gradientUnits="userSpaceOnUse"><stop offset="0" stop-color="#6dc7ff"/><stop offset="1" stop-color="#e6abff"/></linearGradient><path fill="url(#zgBj3QDTZqPWGYIabaDBYd)" d="M30.134,53.713c-0.496,0-1.023-0.041-1.584-0.121c-0.546-0.079-0.926-0.585-0.848-1.132 c0.079-0.546,0.576-0.921,1.133-0.848c1.968,0.282,3.278-0.023,4.247-0.991c0.391-0.391,1.023-0.391,1.414,0s0.391,1.024,0,1.414 C33.365,53.166,31.956,53.713,30.134,53.713z"/><linearGradient id="zgBj3QDTZqPWGYIabaDBYe" x1="33.3" x2="33.3" y1="8.841" y2="68.016" gradientUnits="userSpaceOnUse"><stop offset="0" stop-color="#1a6dff"/><stop offset="1" stop-color="#c822ff"/></linearGradient><path fill="url(#zgBj3QDTZqPWGYIabaDBYe)" d="M53.5,7.182c-12.655,0-20.622,3.884-22.4,4.845c-1.59-2.171-7.042-8.845-13.892-8.845 c-2.036,0-4.96,1.321-6.904,4.273c-2.477,3.761-3.064,9.562-3.023,14.481c0.563-0.582,1.251-1.036,2.016-1.319 c0.063-4.308,0.676-9.023,2.677-12.062c1.526-2.317,3.783-3.373,5.234-3.373c5.979,0,10.95,6.199,12.332,8.099 c1.351,1.858,2.547,6.06,1.348,8.415c-0.643,1.261-1.898,1.874-3.84,1.874c-8.037,0-10.081-5.453-10.169-5.701 c-0.182-0.52-0.753-0.796-1.27-0.616c-0.522,0.18-0.8,0.749-0.62,1.271c0.099,0.288,2.536,7.045,12.059,7.045 c2.909,0,4.447-1.183,5.263-2.373c8.823,0.219,16.478,5.155,18.269,11.836c0.967,3.608,0.38,7.448-1.6,11.06 c0.02-0.62-0.01-1.239-0.143-1.851c-0.708-3.247-3.449-5.806-7.717-7.207c-4.084-1.34-9.129-1.468-14.203-0.361 c-10.668,2.329-18.192,9.512-16.772,16.014c0.098,0.45,0.245,0.884,0.42,1.307c-2.174-1.894-3.768-4.262-4.51-7.031 c-0.771-2.879-0.552-5.956,0.606-8.951c-0.69-0.062-1.341-0.254-1.934-0.547c-1.253,3.338-1.472,6.778-0.604,10.016 c1.859,6.941,8.322,11.712,16.375,13.068c1.53,0.291,3.141,0.453,4.817,0.453c2.188,0,4.466-0.249,6.75-0.747 c4.47-0.976,8.375-2.811,11.314-5.084c2.133-1.53,4.019-3.304,5.548-5.306c3.675-4.812,4.948-10.264,3.585-15.35 c-1.159-4.325-4.447-8-8.873-10.39c3.602-0.074,7.898-0.276,11.546-0.96C60.298,22.207,63,19.158,63,14.348 C63,10.897,60.027,7.182,53.5,7.182z M43.33,52.706c-2.944,2.363-6.517,4.175-10.472,5.234c-4.179,1.119-8.319,1.267-12.074,0.632 c-0.794-0.154-1.569-0.339-2.299-0.578c-3.566-1.171-5.835-3.207-6.387-5.733c-1.184-5.424,5.655-11.54,15.245-13.633 c2.149-0.469,4.285-0.703,6.328-0.703c2.457,0,4.778,0.337,6.826,1.009c3.566,1.171,5.835,3.207,6.387,5.733 C47.473,47.37,46.07,50.243,43.33,52.706z M54.815,21.199c-4.696,0.881-10.616,0.935-14.534,0.97l-1.294,0.013 c-0.028,0-0.051,0.014-0.079,0.017c-1.824-0.528-3.755-0.853-5.745-0.963c0.583-2.417-0.056-5.34-1.054-7.477 c1.727-0.906,9.459-4.576,21.391-4.576c5.92,0,7.5,3.247,7.5,5.166C61,18.231,59.035,20.408,54.815,21.199z"/><g><linearGradient id="zgBj3QDTZqPWGYIabaDBYf" x1="8.881" x2="9.621" y1="22.283" y2="40.987" gradientUnits="userSpaceOnUse"><stop offset="0" stop-color="#6dc7ff"/><stop offset="1" stop-color="#e6abff"/></linearGradient><path fill="url(#zgBj3QDTZqPWGYIabaDBYf)" d="M7.272,36.171c1.619,0,2.982-1.1,3.384-2.592c0.601,0.585,1.423,0.946,2.327,0.946 c1.842,0,3.338-1.496,3.338-3.338c0-1.575-1.094-2.897-2.562-3.247c0.506-0.585,0.812-1.348,0.812-2.181 c0-1.842-1.496-3.338-3.338-3.338c-1.59,0-2.922,1.115-3.257,2.604c-0.634-0.631-1.508-1.022-2.472-1.022 C3.57,24.003,2,25.573,2,27.507c0,1.513,0.962,2.804,2.307,3.294c-0.341,0.541-0.539,1.181-0.539,1.867 C3.768,34.601,5.338,36.171,7.272,36.171z M8.794,27.601c0.214-0.057,0.428-0.085,0.637-0.085c0.953,0,1.801,0.568,2.036,1.445 c0.286,1.069-0.446,2.196-1.635,2.514c-0.214,0.057-0.428,0.085-0.637,0.085c-0.953,0-1.801-0.568-2.036-1.445 C6.872,29.046,7.605,27.92,8.794,27.601z"/></g></svg>