<?xml version="1.0" standalone="no"?>
<!DOCTYPE svg PUBLIC "-//W3C//DTD SVG 20010904//EN"
 "http://www.w3.org/TR/2001/REC-SVG-20010904/DTD/svg10.dtd">
<svg version="1.0" xmlns="http://www.w3.org/2000/svg"
 width="1280.000000pt" height="1216.000000pt" viewBox="0 0 1280.000000 1216.000000"
 preserveAspectRatio="xMidYMid meet">
<g transform="translate(0.000000,1216.000000) scale(0.100000,-0.100000)"
fill="#000000" stroke="none">
<path d="M4025 12150 c-38 -5 -124 -13 -190 -20 -1097 -104 -2143 -672 -2855
-1550 -538 -664 -875 -1492 -949 -2330 -6 -69 -16 -168 -23 -221 -15 -135 0
-434 37 -724 99 -764 402 -1475 884 -2078 137 -171 430 -465 598 -598 326
-260 670 -459 1048 -608 675 -266 1442 -345 2150 -221 240 42 396 73 530 105
504 121 997 347 1422 650 46 33 54 35 70 23 11 -7 1089 -1003 2397 -2213 1308
-1210 2394 -2210 2414 -2222 19 -12 58 -25 86 -29 31 -4 62 -16 80 -31 50 -42
147 -83 198 -83 53 0 183 42 267 86 206 108 405 311 515 524 45 86 96 245 96
297 0 34 -21 104 -46 156 -13 28 -697 666 -2458 2295 -1342 1241 -2459 2271
-2482 2287 -24 17 -44 33 -44 36 0 4 36 66 79 138 326 539 526 1138 597 1793
20 185 23 616 5 793 -71 702 -287 1321 -656 1885 -474 725 -1184 1282 -1990
1563 -179 62 -571 173 -734 207 -347 74 -834 115 -1046 90z"/>
</g>
</svg>
